<svg width="129" height="115" viewBox="0 0 129 115" fill="none" xmlns="http://www.w3.org/2000/svg">
<path d="M44.2837 25.4125C43.2862 26.4091 41.6698 26.4091 40.6723 25.4125L32.2722 17.0195C31.2735 16.0217 31.2735 14.4029 32.2722 13.405C33.2698 12.4083 34.8862 12.4083 35.8837 13.405L44.2837 21.798C45.2824 22.7959 45.2824 24.4146 44.2837 25.4125ZM86.2836 25.4125C85.2861 26.4091 83.6698 26.4091 82.6723 25.4125C81.6735 24.4146 81.6735 22.7959 82.6722 21.798L91.0722 13.405C92.0698 12.4083 93.6862 12.4083 94.6837 13.405C95.6824 14.4029 95.6824 16.0217 94.6837 17.0195L86.2836 25.4125ZM63.478 20.9825C62.0282 20.9825 60.853 19.8072 60.853 18.3575V2.625C60.853 1.17525 62.0282 0 63.478 0C64.9277 0 66.103 1.17525 66.103 2.625V18.3575C66.103 19.8072 64.9277 20.9825 63.478 20.9825ZM24.103 115C23.3592 115 22.7358 114.749 22.2327 114.246C21.7295 113.743 21.478 113.12 21.478 112.377V74.3538C21.478 74.0151 21.5353 73.6789 21.6476 73.3594L31.8971 44.1842C32.1529 43.3502 32.6459 42.7046 33.3763 42.2474C34.1066 41.7901 34.9193 41.5614 35.8145 41.5614H91.5453C92.34 41.5614 93.0615 41.8018 93.7098 42.2827C94.3581 42.7635 94.8078 43.3974 95.0588 44.1842L105.308 73.3594C105.421 73.6789 105.478 74.0151 105.478 74.3538V112.377C105.478 113.12 105.226 113.743 104.723 114.246C104.22 114.749 103.597 115 102.853 115H101.641C100.898 115 100.274 114.749 99.7711 114.246C99.268 113.743 99.0164 113.12 99.0164 112.377V107.509C99.0164 105.852 97.6733 104.509 96.0164 104.509H30.9395C29.2827 104.509 27.9395 105.852 27.9395 107.509V112.377C27.9395 113.12 27.688 113.743 27.1848 114.246C26.6817 114.749 26.0583 115 25.3145 115H24.103ZM30.3296 64.5931C29.6365 66.5458 31.0847 68.5965 33.1568 68.5965H93.7991C95.8712 68.5965 97.3194 66.5458 96.6263 64.5931L91.0222 48.8036C90.5974 47.6067 89.465 46.807 88.195 46.807H38.7609C37.4909 46.807 36.3585 47.6067 35.9337 48.8036L30.3296 64.5931ZM39.4729 92.4035C41.1061 92.4035 42.4864 91.8324 43.6138 90.6901C44.7412 89.5478 45.305 88.1607 45.305 86.5289C45.305 84.8971 44.7333 83.5179 43.59 82.3914C42.4468 81.2649 41.0585 80.7017 39.4254 80.7017C37.7922 80.7017 36.4119 81.2728 35.2844 82.4152C34.1571 83.5575 33.5934 84.9445 33.5934 86.5764C33.5934 88.2082 34.165 89.5874 35.3082 90.7139C36.4514 91.8403 37.8397 92.4035 39.4729 92.4035ZM87.5306 92.4035C89.1638 92.4035 90.5441 91.8324 91.6715 90.6901C92.7989 89.5478 93.3625 88.1607 93.3625 86.5289C93.3625 84.8971 92.791 83.5179 91.6478 82.3914C90.5045 81.2649 89.1163 80.7017 87.4831 80.7017C85.8499 80.7017 84.4696 81.2728 83.3421 82.4152C82.2147 83.5575 81.651 84.9445 81.651 86.5764C81.651 88.2082 82.2226 89.5874 83.3659 90.7139C84.5092 91.8403 85.8974 92.4035 87.5306 92.4035ZM26.728 96.2632C26.728 97.92 28.0711 99.2632 29.728 99.2632H97.228C98.8848 99.2632 100.228 97.92 100.228 96.2632V76.8421C100.228 75.1853 98.8848 73.8421 97.228 73.8421H29.728C28.0711 73.8421 26.728 75.1853 26.728 76.8421V96.2632Z" fill="#2697EC"/>
<rect x="42.478" y="51.6465" width="1.40266" height="16.3268" rx="0.70133" transform="rotate(-41.1544 42.478 51.6465)" fill="#2697EC"/>
<rect x="50.1926" y="54.4514" width="1.40266" height="8.98194" rx="0.70133" transform="rotate(-41.1544 50.1926 54.4514)" fill="#2697EC"/>
<rect x="55.8033" y="55.1528" width="1.40266" height="4.07951" rx="0.70133" transform="rotate(-41.1544 55.8033 55.1528)" fill="#2697EC"/>
<rect y="59.8079" width="4" height="43" rx="2" transform="rotate(-11.6516 0 59.8079)" fill="#2697EC"/>
<rect width="4" height="43" rx="2" transform="matrix(-0.979394 -0.20196 -0.20196 0.979394 128.088 59.8079)" fill="#2697EC"/>
<rect x="2" y="23.8079" width="4" height="43" rx="2" transform="rotate(-11.6516 2 23.8079)" fill="#2697EC"/>
<rect width="4" height="43" rx="2" transform="matrix(-0.979394 -0.20196 -0.20196 0.979394 126.088 23.8079)" fill="#2697EC"/>
</svg>
