<svg width="116" height="298" viewBox="0 0 116 298" fill="none" xmlns="http://www.w3.org/2000/svg">
<path fill-rule="evenodd" clip-rule="evenodd" d="M-90.3746 253.328C-110.215 243.012 -126.184 226.523 -136.262 205.948L-125.832 199.767C-114.095 223.728 -93.1939 242.259 -65.9094 249.678C-11.3406 264.518 48.0963 229.295 66.8464 171.006C85.5966 112.717 56.5598 53.4354 1.99094 38.596C-25.2935 31.1763 -53.7949 36.2721 -77.8189 50.5089L-82.9145 40.1058C-62.2853 27.8809 -39.1309 22.0317 -16.3794 23.2981C6.37218 24.5645 27.6991 32.8896 44.9044 47.2206C62.1097 61.5515 74.4206 81.2447 80.2804 103.81C86.1402 126.375 85.2857 150.798 77.8249 173.992C70.3641 197.185 56.6321 218.107 38.3655 234.111C20.0988 250.115 -1.88209 260.483 -24.7976 263.904C-47.7132 267.324 -70.5341 263.644 -90.3746 253.328Z" fill="#0094FF" fill-opacity="0.8"/>
<path fill-rule="evenodd" clip-rule="evenodd" d="M-77.8958 231.706C-93.7682 223.453 -106.543 210.263 -114.606 193.802L-106.262 188.858C-96.8723 208.027 -80.1512 222.851 -58.3237 228.787C-14.6686 240.658 32.8808 212.48 47.8809 165.849C62.881 119.218 39.6516 71.7924 -4.00343 59.9209C-25.8309 53.9851 -48.632 58.0618 -67.8513 69.4512L-71.9277 61.1287C-55.4243 51.3488 -36.9008 46.6695 -18.6996 47.6826C-0.498382 48.6957 16.5631 55.3558 30.3274 66.8205C44.0916 78.2853 53.9403 94.0398 58.6282 112.092C63.316 130.144 62.6324 149.683 56.6637 168.237C50.6951 186.792 39.7095 203.53 25.0962 216.333C10.4829 229.136 -7.10182 237.43 -25.4342 240.167C-43.7667 242.903 -62.0234 239.959 -77.8958 231.706Z" fill="#006EBE" fill-opacity="0.8"/>
<path fill-rule="evenodd" clip-rule="evenodd" d="M-63.3923 210.635C-75.2966 204.446 -84.878 194.553 -90.9248 182.207L-84.6659 178.498C-77.6241 192.876 -65.0831 203.994 -48.7121 208.446C-15.9708 217.35 19.6912 196.216 30.9413 161.243C42.1914 126.269 24.7694 90.7002 -7.97194 81.7966C-24.3429 77.3447 -41.444 80.4024 -55.8586 88.9448L-58.9163 82.7022C-46.5388 75.3672 -32.6462 71.8578 -18.9952 72.6176C-5.34432 73.3774 7.45181 78.3725 17.775 86.971C28.0982 95.5696 35.4847 107.385 39.0006 120.925C42.5165 134.464 42.0038 149.118 37.5273 163.034C33.0508 176.95 24.8117 189.503 13.8517 199.105C2.8917 208.708 -10.2968 214.929 -24.0462 216.981C-37.7955 219.033 -51.488 216.825 -63.3923 210.635Z" fill="#0094FF" fill-opacity="0.8"/>
</svg>
