<svg width="177" height="841" viewBox="0 0 177 841" fill="none" xmlns="http://www.w3.org/2000/svg">
<path d="M133 140.5C133 177.227 103.227 207 66.5 207C29.7731 207 0 177.227 0 140.5C0 103.773 29.7731 74 66.5 74C103.227 74 133 103.773 133 140.5Z" fill="#EEF4F9"/>
<path d="M163 268.5C163 313.511 126.511 350 81.5 350C36.4888 350 0 313.511 0 268.5C0 223.489 36.4888 187 81.5 187C126.511 187 163 223.489 163 268.5Z" fill="#EEF4F9"/>
<path d="M118 359C118 391.585 91.5848 418 59 418C26.4152 418 0 391.585 0 359C0 326.415 26.4152 300 59 300C91.5848 300 118 326.415 118 359Z" fill="#EEF4F9"/>
<path d="M177 474.5C177 523.377 137.377 563 88.5 563C39.6228 563 0 523.377 0 474.5C0 425.623 39.6228 386 88.5 386C137.377 386 177 425.623 177 474.5Z" fill="#EEF4F9"/>
<path d="M147 594.5C147 635.093 114.093 668 73.5 668C32.9071 668 0 635.093 0 594.5C0 553.907 32.9071 521 73.5 521C114.093 521 147 553.907 147 594.5Z" fill="#EEF4F9"/>
<path d="M110 683.5C110 711.39 87.3904 734 59.5 734C31.6096 734 9 711.39 9 683.5C9 655.61 31.6096 633 59.5 633C87.3904 633 110 655.61 110 683.5Z" fill="#EEF4F9"/>
<path d="M136 777.5C136 812.57 107.57 841 72.5 841C37.4299 841 9 812.57 9 777.5C9 742.43 37.4299 714 72.5 714C107.57 714 136 742.43 136 777.5Z" fill="#EEF4F9"/>
<path d="M109 50C109 77.6142 86.6142 100 59 100C31.3858 100 9 77.6142 9 50C9 22.3858 31.3858 0 59 0C86.6142 0 109 22.3858 109 50Z" fill="#EEF4F9"/>
</svg>
