<svg width="150" height="150" viewBox="0 0 150 150" fill="none" xmlns="http://www.w3.org/2000/svg">
<rect x="31.9763" y="56.6116" width="22.9245" height="8.50478" rx="3" transform="rotate(146.592 31.9763 56.6116)" fill="#2697EC"/>
<rect x="91.5348" y="35.9222" width="61.6464" height="29.9372" rx="4" transform="rotate(146.592 91.5348 35.9222)" stroke="#2697EC" stroke-width="6"/>
<rect x="78.3781" y="29.3997" width="2.11395" height="24.6061" rx="1" transform="rotate(85.3742 78.3781 29.3997)" fill="#2697EC"/>
<rect x="68.0602" y="36.2258" width="2.11395" height="13.5367" rx="1" transform="rotate(85.3742 68.0602 36.2258)" fill="#2697EC"/>
<rect x="62.1777" y="42.3914" width="2.11395" height="6.14823" rx="1" transform="rotate(85.3742 62.1777 42.3914)" fill="#2697EC"/>
<path fill-rule="evenodd" clip-rule="evenodd" d="M69.324 135.562L73.6611 132.701C73.6513 132.576 73.6463 132.45 73.6463 132.323C73.6463 129.696 75.7758 127.566 78.4027 127.566C79.033 127.566 79.6346 127.689 80.185 127.912C80.6437 126.986 80.6119 125.849 80.0023 124.925L78.6232 122.834C77.7109 121.451 75.8501 121.069 74.467 121.981L68.2636 126.073C68.3278 126.385 68.3616 126.707 68.3616 127.038C68.3616 129.665 66.2321 131.794 63.6052 131.794C62.5935 131.794 61.6556 131.478 60.8847 130.94L60.339 131.3C58.9559 132.212 58.5743 134.073 59.4865 135.456L60.8657 137.547C60.9214 137.631 60.9806 137.712 61.0431 137.789C61.4541 135.58 63.3913 133.908 65.7191 133.908C67.1603 133.908 68.4518 134.549 69.324 135.562Z" fill="#2697EC"/>
<path fill-rule="evenodd" clip-rule="evenodd" d="M132.38 116.159L139.525 111.446C142.753 109.318 143.643 104.976 141.515 101.749L139.72 99.0281C139.716 99.0281 139.712 99.0281 139.707 99.0281C137.08 99.0281 134.951 96.8986 134.951 94.2717C134.951 93.6019 135.089 92.9644 135.339 92.3863L129.436 83.4362C127.83 81.0008 124.963 79.8961 122.266 80.4154C122.267 80.4539 122.267 80.4924 122.267 80.531C122.267 83.1579 120.138 85.2874 117.511 85.2874C116.59 85.2874 115.729 85.0254 115.001 84.5719L92.2033 99.6088C92.5037 100.232 92.672 100.932 92.672 101.67C92.672 104.297 90.5425 106.427 87.9156 106.427C86.487 106.427 85.2055 105.797 84.3336 104.8L74.9561 110.985C71.7289 113.114 70.8383 117.455 72.9669 120.683L85.0456 138.995C87.1742 142.222 91.516 143.113 94.7432 140.984L97.2274 139.346C97.016 138.807 96.8999 138.221 96.8999 137.608C96.8999 134.981 99.0295 132.851 101.656 132.851C102.958 132.851 104.137 133.374 104.996 134.221L124.661 121.251C124.48 120.747 124.381 120.205 124.381 119.639C124.381 117.012 126.511 114.883 129.138 114.883C130.391 114.883 131.531 115.367 132.38 116.159ZM136.222 106.438L91.4395 135.975C90.9785 136.28 90.3583 136.152 90.0542 135.691L77.9755 117.379C77.6714 116.918 77.7987 116.298 78.2597 115.994L123.042 86.4557C123.503 86.1516 124.123 86.2788 124.427 86.7398L136.506 105.052C136.81 105.513 136.683 106.134 136.222 106.438Z" fill="#2697EC"/>
<rect x="107.772" y="127.584" width="1.03611" height="24.6061" rx="0.518057" transform="rotate(85.3742 107.772 127.584)" fill="#2697EC"/>
<rect x="115.046" y="89.3516" width="1.03611" height="52.9178" rx="0.518057" transform="rotate(30.1785 115.046 89.3516)" fill="#2697EC"/>
<rect x="115.589" y="107.774" width="1.03611" height="11.3022" rx="0.518057" transform="rotate(87.3412 115.589 107.774)" fill="#2697EC"/>
<rect x="125.616" y="114.911" width="1.03611" height="12.5655" rx="0.518057" transform="rotate(126.234 125.616 114.911)" fill="#2697EC"/>
<rect x="123.549" y="85.4197" width="1.03611" height="24.834" rx="0.518057" transform="rotate(20.4584 123.549 85.4197)" fill="#2697EC"/>
<rect x="73.6465" y="116.971" width="1.03611" height="24.834" rx="0.518057" transform="rotate(-84.5852 73.6465 116.971)" fill="#2697EC"/>
<rect x="100.071" y="115.914" width="1.03611" height="24.834" rx="0.518057" transform="rotate(-84.5852 100.071 115.914)" fill="#2697EC"/>
<rect x="116.275" y="108.371" width="1.03611" height="24.834" rx="0.518057" transform="rotate(-109.69 116.275 108.371)" fill="#2697EC"/>
<rect x="98.598" y="96.6748" width="1.03611" height="18.7011" rx="0.518057" transform="rotate(-5.5274 98.598 96.6748)" fill="#2697EC"/>
<path d="M92.8126 73.5595C93.3499 73.6713 93.6967 74.1953 93.5897 74.7335L90.6019 89.7621C90.4942 90.3038 89.9678 90.6556 89.4261 90.5479L74.4062 87.5619C73.8645 87.4542 73.5127 86.9277 73.6204 86.3861L73.9062 84.9487C74.0136 84.408 74.5384 84.0563 75.0793 84.1623L82.8756 85.6902C83.7486 85.8613 84.3936 84.8929 83.8993 84.1533L70.0721 63.4639C69.7652 63.0047 69.8887 62.3837 70.3479 62.0768L71.5933 61.2445C72.0524 60.9376 72.6734 61.0611 72.9803 61.5202L86.8024 82.2019C87.2974 82.9426 88.4409 82.715 88.6146 81.8412L90.1657 74.0393C90.274 73.4943 90.806 73.1421 91.3501 73.2553L92.8126 73.5595Z" fill="#2697EC"/>
</svg>
