<svg width="445" height="777" viewBox="0 0 445 777" fill="none" xmlns="http://www.w3.org/2000/svg">
<path d="M0 777H245.403C249.821 777 253.403 773.418 253.403 769V768.548C253.403 764.13 249.821 760.548 245.403 760.548H0V777Z" fill="#D7E8F4" fill-opacity="0.3"/>
<path d="M0 738.113H293.302C297.72 738.113 301.302 734.532 301.302 730.113V729.661C301.302 725.243 297.72 721.661 293.302 721.661H0V738.113Z" fill="#BCD7EB" fill-opacity="0.3"/>
<path d="M0 699.226H341.201C345.62 699.226 349.201 695.644 349.201 691.226V690.774C349.201 686.356 345.62 682.774 341.201 682.774H0V699.226Z" fill="#D7E8F4" fill-opacity="0.3"/>
<path d="M0 660.339H389.101C393.519 660.339 397.101 656.758 397.101 652.339V651.887C397.101 647.469 393.519 643.887 389.101 643.887H0V660.339Z" fill="#BCD7EB" fill-opacity="0.3"/>
<path d="M0 621.452H437C441.418 621.452 445 617.87 445 613.452V613C445 608.582 441.418 605 437 605H0V621.452Z" fill="#BCD7EB" fill-opacity="0.3"/>
<path d="M0 400H245.403C249.821 400 253.403 403.582 253.403 408V408.452C253.403 412.87 249.821 416.452 245.403 416.452H0V400Z" fill="#D7E8F4" fill-opacity="0.3"/>
<path d="M0 438.887H293.302C297.72 438.887 301.302 442.468 301.302 446.887V447.339C301.302 451.757 297.72 455.339 293.302 455.339H0V438.887Z" fill="#BCD7EB" fill-opacity="0.3"/>
<path d="M0 477.774H341.201C345.62 477.774 349.201 481.356 349.201 485.774V486.226C349.201 490.644 345.62 494.226 341.201 494.226H0V477.774Z" fill="#D7E8F4" fill-opacity="0.3"/>
<path d="M0 516.661H389.101C393.519 516.661 397.101 520.242 397.101 524.661V525.113C397.101 529.531 393.519 533.113 389.101 533.113H0V516.661Z" fill="#BCD7EB" fill-opacity="0.3"/>
<path d="M0 555.548H437C441.418 555.548 445 559.13 445 563.548V564C445 568.418 441.418 572 437 572H0V555.548Z" fill="#BCD7EB" fill-opacity="0.3"/>
<path d="M0 377H245.403C249.821 377 253.403 373.418 253.403 369V368.548C253.403 364.13 249.821 360.548 245.403 360.548H0V377Z" fill="#D7E8F4" fill-opacity="0.3"/>
<path d="M0 338.113H293.302C297.72 338.113 301.302 334.532 301.302 330.113V329.661C301.302 325.243 297.72 321.661 293.302 321.661H0V338.113Z" fill="#BCD7EB" fill-opacity="0.3"/>
<path d="M0 299.226H341.201C345.62 299.226 349.201 295.644 349.201 291.226V290.774C349.201 286.356 345.62 282.774 341.201 282.774H0V299.226Z" fill="#D7E8F4" fill-opacity="0.3"/>
<path d="M0 260.339H389.101C393.519 260.339 397.101 256.758 397.101 252.339V251.887C397.101 247.469 393.519 243.887 389.101 243.887H0V260.339Z" fill="#BCD7EB" fill-opacity="0.3"/>
<path d="M0 221.452H437C441.418 221.452 445 217.87 445 213.452V213C445 208.582 441.418 205 437 205H0V221.452Z" fill="#BCD7EB" fill-opacity="0.3"/>
<path d="M0 0H245.403C249.821 0 253.403 3.58172 253.403 8V8.45218C253.403 12.8705 249.821 16.4522 245.403 16.4522H0V0Z" fill="#D7E8F4" fill-opacity="0.3"/>
<path d="M0 38.8867H293.302C297.72 38.8867 301.302 42.4684 301.302 46.8867V47.3389C301.302 51.7572 297.72 55.3389 293.302 55.3389H0V38.8867Z" fill="#BCD7EB" fill-opacity="0.3"/>
<path d="M0 77.7739H341.201C345.62 77.7739 349.201 81.3556 349.201 85.7739V86.2261C349.201 90.6444 345.62 94.2261 341.201 94.2261H0V77.7739Z" fill="#D7E8F4" fill-opacity="0.3"/>
<path d="M0 116.661H389.101C393.519 116.661 397.101 120.242 397.101 124.661V125.113C397.101 129.531 393.519 133.113 389.101 133.113H0V116.661Z" fill="#BCD7EB" fill-opacity="0.3"/>
<path d="M0 155.548H437C441.418 155.548 445 159.13 445 163.548V164C445 168.418 441.418 172 437 172H0V155.548Z" fill="#BCD7EB" fill-opacity="0.3"/>
</svg>
