<svg width="153" height="29" viewBox="0 0 153 29" fill="none" xmlns="http://www.w3.org/2000/svg">
<path d="M141.524 27.4003C139.615 27.4003 137.842 27.1032 136.206 26.509C134.593 25.892 133.184 25.0236 131.979 23.9038C130.798 22.784 129.877 21.4586 129.218 19.9275C128.559 18.3963 128.23 16.7053 128.23 14.8542C128.23 13.0031 128.559 11.312 129.218 9.78092C129.877 8.24979 130.798 6.92434 131.979 5.80456C133.184 4.68478 134.593 3.82781 136.206 3.23364C137.842 2.61662 139.615 2.30811 141.524 2.30811C143.864 2.30811 145.932 2.71946 147.727 3.54215C149.545 4.36485 151.045 5.55318 152.227 7.10716L147.148 11.6663C146.443 10.775 145.659 10.0894 144.796 9.60952C143.955 9.10676 143.001 8.85539 141.933 8.85539C141.092 8.85539 140.331 8.9925 139.649 9.26673C138.967 9.54096 138.376 9.94088 137.876 10.4665C137.399 10.9921 137.024 11.632 136.752 12.3861C136.479 13.1174 136.343 13.9401 136.343 14.8542C136.343 15.7683 136.479 16.6024 136.752 17.3566C137.024 18.0878 137.399 18.7163 137.876 19.2419C138.376 19.7675 138.967 20.1674 139.649 20.4417C140.331 20.7159 141.092 20.853 141.933 20.853C143.001 20.853 143.955 20.6131 144.796 20.1331C145.659 19.6304 146.443 18.9334 147.148 18.0421L152.227 22.6012C151.045 24.1324 149.545 25.3207 147.727 26.1662C145.932 26.9889 143.864 27.4003 141.524 27.4003Z" fill="#0094FF"/>
<path d="M118.984 26.8518L113.053 15.6083L119.461 11.8377L128.051 26.8518H118.984ZM104.122 26.8518V2.85658H112.167V26.8518H104.122ZM109.849 18.1793V11.8034H118.882V18.1793H109.849ZM120.245 15.7112L112.848 14.957L119.7 2.85658H128.085L120.245 15.7112Z" fill="#0094FF"/>
<path d="M58.7538 26.8518V7.38139L60.4922 9.12962H51.7661V2.85658H73.6496V9.12962H64.9234L66.6619 7.38139V26.8518H58.7538Z" fill="#0094FF"/>
<path d="M25.4058 26.8518V2.85658H33.3138V15.3341L41.5286 2.85658H49.0958V26.8518H41.1877V14.4086L33.007 26.8518H25.4058Z" fill="#0094FF"/>
<path d="M14.6111 2.85658H22.5646V26.8518H14.6111V2.85658Z" fill="#0094FF"/>
<path fill-rule="evenodd" clip-rule="evenodd" d="M19.9682 6.1556L14.611 2.85658L0 26.8518H7.36602L19.9682 6.1556Z" fill="#0094FF"/>
<path fill-rule="evenodd" clip-rule="evenodd" d="M83.8662 28.7214C81.0693 28.1619 78.5001 26.7809 76.4836 24.753L77.5032 23.7277C79.8515 26.0893 83.0957 27.55 86.6791 27.55C93.8459 27.55 99.6558 21.7073 99.6558 14.5C99.6558 7.29269 93.8459 1.45 86.6791 1.45C83.0957 1.45 79.8515 2.91067 77.5032 5.27225L76.4837 4.24695C78.5001 2.21909 81.0693 0.838104 83.8662 0.278619C86.6631 -0.280866 89.5622 0.00628355 92.1968 1.10375C94.8315 2.20123 97.0834 4.05973 98.6677 6.44424C100.252 8.82875 101.098 11.6322 101.098 14.5C101.098 17.3678 100.252 20.1713 98.6677 22.5558C97.0833 24.9403 94.8315 26.7988 92.1968 27.8962C89.5622 28.9937 86.6631 29.2809 83.8662 28.7214Z" fill="#FF0000"/>
<path fill-rule="evenodd" clip-rule="evenodd" d="M84.5332 25.8771C82.2957 25.4295 80.2404 24.3247 78.6272 22.7024L79.4428 21.8822C81.3215 23.7715 83.9168 24.94 86.7835 24.94C92.517 24.94 97.1649 20.2658 97.1649 14.5C97.1649 8.73415 92.517 4.06 86.7835 4.06C83.9168 4.06 81.3215 5.22853 79.4428 7.1178L78.6272 6.29756C80.2404 4.67527 82.2957 3.57048 84.5332 3.12289C86.7708 2.6753 89.09 2.90502 91.1977 3.783C93.3055 4.66098 95.107 6.14778 96.3744 8.05539C97.6419 9.96299 98.3184 12.2057 98.3184 14.5C98.3184 16.7943 97.6419 19.037 96.3744 20.9446C95.107 22.8522 93.3055 24.339 91.1977 25.217C89.09 26.095 86.7708 26.3247 84.5332 25.8771Z" fill="#FF0000"/>
<path fill-rule="evenodd" clip-rule="evenodd" d="M85.4664 23.0328C83.7882 22.6971 82.2467 21.8685 81.0369 20.6518L81.6487 20.0366C83.0577 21.4536 85.0042 22.33 87.1543 22.33C91.4544 22.33 94.9403 18.8244 94.9403 14.5C94.9403 10.1756 91.4544 6.67 87.1543 6.67C85.0042 6.67 83.0577 7.54643 81.6487 8.96343L81.0369 8.34817C82.2467 7.13146 83.7882 6.30286 85.4664 5.96717C87.1445 5.63148 88.884 5.80377 90.4648 6.46225C92.0456 7.12073 93.3967 8.23583 94.3473 9.66654C95.2979 11.0972 95.8053 12.7793 95.8053 14.5C95.8053 16.2207 95.2979 17.9027 94.3473 19.3335C93.3967 20.7642 92.0456 21.8793 90.4648 22.5377C88.884 23.1962 87.1445 23.3685 85.4664 23.0328Z" fill="#FF0000"/>
<path fill-rule="evenodd" clip-rule="evenodd" d="M85.8927 20.1489C84.7416 19.8794 83.7007 19.2608 82.9107 18.3769L84.2573 17.1599C84.7112 17.6284 85.2831 17.967 85.9144 18.1379C86.633 18.3326 87.3938 18.3005 88.0937 18.0461C88.7936 17.7916 89.3989 17.3271 89.8277 16.7154C90.2565 16.1036 90.4881 15.3741 90.4911 14.6257C90.4941 13.8772 90.2684 13.1459 89.8446 12.5307C89.4207 11.9155 88.8192 11.446 88.1213 11.1859C87.4235 10.9258 86.663 10.8875 85.9428 11.0763C85.2787 11.2503 84.6784 11.6097 84.2104 12.1112L82.6846 10.8923C83.4197 9.96166 84.4214 9.28064 85.554 8.94136C86.6867 8.60207 87.8956 8.62091 89.0173 8.9953C90.1389 9.3697 91.1191 10.0816 91.8252 11.0346C92.5314 11.9877 92.9293 13.1359 92.9652 14.3238C93.0011 15.5118 92.6732 16.6821 92.026 17.6766C91.3787 18.671 90.4433 19.4414 89.3463 19.8836C88.2493 20.3258 87.0437 20.4184 85.8927 20.1489Z" fill="#FF0000"/>
<path d="M85.6477 13.6368H91.7014V15.7067H85.6477V13.6368Z" fill="#FF0000"/>
</svg>
