<svg width="61" height="60" viewBox="0 0 61 60" fill="none" xmlns="http://www.w3.org/2000/svg">
<path d="M21.9 60L20.7 50.4C20.05 50.15 19.4375 49.85 18.8625 49.5C18.2875 49.15 17.725 48.775 17.175 48.375L8.25 52.125L0 37.875L7.725 32.025C7.675 31.675 7.65 31.3375 7.65 31.0125V28.9875C7.65 28.6625 7.675 28.325 7.725 27.975L0 22.125L8.25 7.875L17.175 11.625C17.725 11.225 18.3 10.85 18.9 10.5C19.5 10.15 20.1 9.85 20.7 9.6L21.9 0H38.4L39.6 9.6C40.25 9.85 40.8625 10.15 41.4375 10.5C42.0125 10.85 42.575 11.225 43.125 11.625L52.05 7.875L60.3 22.125L52.575 27.975C52.625 28.325 52.65 28.6625 52.65 28.9875V31.0125C52.65 31.3375 52.6 31.675 52.5 32.025L60.225 37.875L51.975 52.125L43.125 48.375C42.575 48.775 42 49.15 41.4 49.5C40.8 49.85 40.2 50.15 39.6 50.4L38.4 60H21.9ZM27.15 54H33.075L34.125 46.05C35.675 45.65 37.1125 45.0625 38.4375 44.2875C39.7625 43.5125 40.975 42.575 42.075 41.475L49.5 44.55L52.425 39.45L45.975 34.575C46.225 33.875 46.4 33.1375 46.5 32.3625C46.6 31.5875 46.65 30.8 46.65 30C46.65 29.2 46.6 28.4125 46.5 27.6375C46.4 26.8625 46.225 26.125 45.975 25.425L52.425 20.55L49.5 15.45L42.075 18.6C40.975 17.45 39.7625 16.4875 38.4375 15.7125C37.1125 14.9375 35.675 14.35 34.125 13.95L33.15 6H27.225L26.175 13.95C24.625 14.35 23.1875 14.9375 21.8625 15.7125C20.5375 16.4875 19.325 17.425 18.225 18.525L10.8 15.45L7.875 20.55L14.325 25.35C14.075 26.1 13.9 26.85 13.8 27.6C13.7 28.35 13.65 29.15 13.65 30C13.65 30.8 13.7 31.575 13.8 32.325C13.9 33.075 14.075 33.825 14.325 34.575L7.875 39.45L10.8 44.55L18.225 41.4C19.325 42.55 20.5375 43.5125 21.8625 44.2875C23.1875 45.0625 24.625 45.65 26.175 46.05L27.15 54ZM30.3 40.5C33.2 40.5 35.675 39.475 37.725 37.425C39.775 35.375 40.8 32.9 40.8 30C40.8 27.1 39.775 24.625 37.725 22.575C35.675 20.525 33.2 19.5 30.3 19.5C27.35 19.5 24.8625 20.525 22.8375 22.575C20.8125 24.625 19.8 27.1 19.8 30C19.8 32.9 20.8125 35.375 22.8375 37.425C24.8625 39.475 27.35 40.5 30.3 40.5Z" fill="#6DA9D6"/>
</svg>
