<svg width="336" height="597" viewBox="0 0 336 597" fill="none" xmlns="http://www.w3.org/2000/svg">
<path d="M85.016 183.897L93.9477 157.362C92.5623 155.895 91.3378 154.345 90.2743 152.712C89.2107 151.078 88.2113 149.395 87.276 147.663L59.2232 146.252L55.566 98.7544L83.1211 93.1855C83.4304 92.2103 83.7893 91.2989 84.198 90.4515L86.7439 85.1716C87.1525 84.3242 87.6422 83.4755 88.213 82.6256L75.3677 57.6882L114.857 30.8755L133.48 51.8418C135.421 51.4883 137.396 51.2314 139.405 51.071C141.414 50.9106 143.36 50.8805 145.243 50.9809L160.451 27.4544L203.597 48.1392L194.665 74.6744C196.051 76.1411 197.275 77.6912 198.339 79.3246C199.402 80.958 200.402 82.6409 201.337 84.3734L229.39 85.7843L233.047 133.282L205.492 138.851C205.183 139.826 204.824 140.737 204.415 141.585L201.869 146.865C201.461 147.712 200.905 148.529 200.204 149.317L213.049 174.254L173.56 201.067L155.133 180.195C153.192 180.548 151.217 180.805 149.208 180.965C147.199 181.126 145.253 181.156 143.37 181.055L128.162 204.582L85.016 183.897ZM106.288 174.834L121.781 182.262L134.522 162.85C139.078 163.75 143.576 164.02 148.015 163.66C152.454 163.301 156.803 162.376 161.062 160.887L176.612 178.213L190.673 168.582L179.936 147.786C181.469 146.274 182.854 144.57 184.09 142.675C185.326 140.78 186.447 138.789 187.453 136.703C188.458 134.617 189.318 132.501 190.031 130.355C190.743 128.209 191.213 126.067 191.439 123.928L214.435 119.303L213.198 102.338L189.822 101.244C188.391 96.8661 186.431 92.8364 183.941 89.1547C181.45 85.4729 178.43 82.139 174.88 79.1529L182.325 57.202L166.832 49.7742L154.091 69.1866C149.535 68.2864 145.037 68.0162 140.598 68.3758C136.159 68.7355 131.81 69.6599 127.551 71.149L112.001 53.8231L97.9403 63.4539L108.772 84.0552C107.175 85.6973 105.774 87.4335 104.57 89.2637C103.366 91.0938 102.229 93.1171 101.16 95.3333C100.155 97.4192 99.311 99.5026 98.6295 101.584C97.9481 103.664 97.4628 105.839 97.1736 108.108L74.1783 112.733L75.4149 129.698L98.791 130.793C100.222 135.17 102.182 139.2 104.672 142.882C107.163 146.563 110.183 149.897 113.733 152.883L106.288 174.834ZM131.498 143.584C139.081 147.219 146.841 147.649 154.779 144.874C162.717 142.099 168.509 136.931 172.155 129.369C175.801 121.808 176.233 114.07 173.45 106.155C170.666 98.2395 165.483 92.4642 157.9 88.8287C150.186 85.1305 142.393 84.6847 134.52 87.4912C126.647 90.2978 120.888 95.4817 117.242 103.043C113.596 110.605 113.132 118.327 115.85 126.211C118.568 134.095 123.784 139.885 131.498 143.584Z" fill="#B0CEE4"/>
<path d="M137.02 309.051L134.537 291C133.304 290.544 132.14 289.993 131.046 289.346C129.953 288.7 128.882 288.007 127.834 287.266L111.063 294.529L95.1595 267.879L109.617 256.689C109.515 256.031 109.46 255.396 109.452 254.784L109.407 250.97C109.399 250.358 109.439 249.722 109.525 249.062L94.8036 238.219L110.063 211.198L127.003 218.059C128.033 217.293 129.111 216.574 130.236 215.901C131.361 215.229 132.488 214.65 133.615 214.166L135.664 196.06L166.827 195.689L169.31 213.74C170.543 214.196 171.707 214.747 172.801 215.394C173.895 216.04 174.965 216.733 176.013 217.474L192.784 210.211L208.688 236.86L194.23 248.051C194.333 248.709 194.387 249.344 194.395 249.956L194.441 253.77C194.448 254.382 194.361 255.018 194.18 255.68L208.902 266.522L193.643 293.544L176.844 286.681C175.814 287.447 174.737 288.166 173.611 288.838C172.486 289.511 171.36 290.09 170.232 290.574L168.183 308.679L137.02 309.051ZM146.8 297.634L157.99 297.5L159.794 282.505C162.712 281.717 165.414 280.578 167.899 279.089C170.383 277.6 172.652 275.807 174.705 273.711L188.797 279.334L194.206 269.664L181.915 260.629C182.371 259.305 182.685 257.912 182.856 256.451C183.027 254.989 183.104 253.505 183.086 251.998C183.068 250.492 182.956 249.01 182.749 247.552C182.543 246.095 182.196 244.71 181.708 243.398L193.779 234.072L188.14 224.534L174.188 230.633C172.084 228.492 169.773 226.707 167.253 225.277C164.733 223.848 162.005 222.774 159.068 222.055L157.047 207.106L145.857 207.24L144.054 222.234C141.135 223.023 138.434 224.161 135.949 225.651C133.464 227.14 131.195 228.933 129.142 231.029L115.05 225.406L109.641 235.076L121.931 243.97C121.476 245.388 121.162 246.804 120.99 248.219C120.818 249.633 120.742 251.141 120.761 252.742C120.779 254.248 120.891 255.707 121.097 257.117C121.303 258.527 121.65 259.935 122.14 261.342L110.068 270.668L115.708 280.206L129.659 274.107C131.763 276.248 134.075 278.033 136.595 279.463C139.114 280.892 141.843 281.966 144.779 282.685L146.8 297.634ZM152.444 272.14C157.921 272.075 162.572 270.089 166.398 266.182C170.223 262.275 172.103 257.591 172.037 252.13C171.972 246.669 169.98 242.031 166.062 238.217C162.144 234.402 157.447 232.528 151.97 232.593C146.398 232.66 141.723 234.646 137.945 238.552C134.167 242.458 132.311 247.142 132.376 252.603C132.442 258.064 134.41 262.702 138.281 266.517C142.152 270.332 146.873 272.206 152.444 272.14Z" fill="#8CBDE2"/>
<path d="M70.7669 518.9L85.7759 480.731C83.8565 478.485 82.1787 476.128 80.7424 473.661C79.3061 471.194 77.9672 468.659 76.7258 466.057L35.79 461.951L33.9169 392.199L74.6356 386.058C75.1595 384.654 75.7513 383.347 76.4111 382.137L80.5221 374.598C81.1819 373.388 81.9604 372.182 82.8577 370.98L65.8916 333.564L125.624 297.213L151.333 329.241C154.199 328.865 157.107 328.633 160.058 328.544C163.009 328.456 165.858 328.554 168.606 328.838L192.575 295.527L254.181 328.928L239.172 367.097C241.091 369.343 242.769 371.7 244.205 374.167C245.641 376.634 246.98 379.169 248.222 381.771L289.157 385.877L291.031 455.629L250.312 461.77C249.788 463.174 249.196 464.481 248.536 465.691L244.425 473.23C243.765 474.44 242.894 475.595 241.81 476.696L258.776 514.112L199.044 550.463L173.614 518.587C170.748 518.963 167.84 519.195 164.89 519.284C161.939 519.372 159.09 519.274 156.342 518.99L132.372 552.301L70.7669 518.9ZM102.549 507.19L124.671 519.184L144.731 491.713C151.33 493.361 157.89 494.084 164.411 493.881C170.931 493.678 177.361 492.642 183.702 490.774L205.181 517.252L226.456 504.186L212.271 472.981C214.625 470.881 216.776 468.489 218.723 465.806C220.669 463.124 222.455 460.293 224.079 457.315C225.703 454.336 227.115 451.303 228.315 448.216C229.515 445.128 230.359 442.028 230.847 438.916L264.826 433.824L264.258 408.916L230.141 405.613C228.369 399.105 225.796 393.067 222.422 387.5C219.048 381.932 214.874 376.835 209.899 372.208L222.398 340.638L200.276 328.644L180.216 356.115C173.617 354.467 167.057 353.744 160.537 353.947C154.016 354.15 147.586 355.186 141.246 357.054L119.766 330.576L98.4915 343.642L112.829 374.568C110.373 376.854 108.197 379.292 106.301 381.882C104.405 384.472 102.594 387.349 100.869 390.513C99.2444 393.492 97.8577 396.478 96.7085 399.473C95.5592 402.467 94.69 405.614 94.1008 408.912L60.1219 414.004L60.6891 438.912L94.8063 442.215C96.5787 448.723 99.1517 454.761 102.525 460.328C105.899 465.896 110.074 470.993 115.049 475.62L102.549 507.19ZM141.717 463.308C152.545 469.178 163.867 470.373 175.682 466.89C187.498 463.408 196.35 456.269 202.237 445.473C208.124 434.676 209.322 423.387 205.83 411.606C202.338 399.824 195.178 390.998 184.35 385.127C173.336 379.156 161.968 377.936 150.245 381.469C138.523 385.002 129.718 392.166 123.83 402.963C117.943 413.759 116.699 425.023 120.098 436.754C123.496 448.485 130.703 457.336 141.717 463.308Z" fill="#B0CEE4"/>
</svg>
