<svg width="150" height="150" viewBox="0 0 150 150" fill="none" xmlns="http://www.w3.org/2000/svg">
<circle cx="42" cy="111" r="31" stroke="#2697EC" stroke-width="4"/>
<circle cx="42" cy="111" r="22" stroke="#2697EC" stroke-width="6"/>
<rect x="41" y="92" width="2" height="39" fill="#2697EC"/>
<rect x="22.5" y="112.5" width="2" height="39" transform="rotate(-90 22.5 112.5)" fill="#2697EC"/>
<rect x="26.3683" y="96.7825" width="2" height="41.3076" transform="rotate(-45 26.3683 96.7825)" fill="#2697EC"/>
<rect width="2" height="41.3076" transform="matrix(-0.707107 -0.707107 -0.707107 0.707107 56.6231 97.4143)" fill="#2697EC"/>
<circle cx="42" cy="111" r="7" fill="#2697EC"/>
<rect x="126" y="56.7385" width="21.6888" height="8.04634" rx="3" transform="rotate(-31.0552 126 56.7385)" fill="#2697EC"/>
<rect x="69.1176" y="74.0378" width="58" height="28" rx="4" transform="rotate(-31.0552 69.1176 74.0378)" stroke="#2697EC" stroke-width="6"/>
<rect x="81.0793" y="80.6594" width="2" height="23.2797" rx="1" transform="rotate(-92.2726 81.0793 80.6594)" fill="#2697EC"/>
<rect x="91.098" y="74.6074" width="2" height="12.807" rx="1" transform="rotate(-92.2726 91.098 74.6074)" fill="#2697EC"/>
<rect x="96.8982" y="69.0076" width="2" height="5.81682" rx="1" transform="rotate(-92.2726 96.8982 69.0076)" fill="#2697EC"/>
<mask id="path-13-inside-1_72_70" fill="white">
<path fill-rule="evenodd" clip-rule="evenodd" d="M34.4725 5.88697C33.1786 5.30236 31.775 5 30.3552 5H9C6.23858 5 4 7.23858 4 10V50C4 52.7614 6.23858 55 9 55H80.25C83.0114 55 85.25 52.7614 85.25 50V35.2839C85.25 31.3542 82.9485 27.7888 79.3674 26.1709L34.4725 5.88697Z"/>
</mask>
<path d="M79.3674 26.1709L76.8969 31.6387L79.3674 26.1709ZM9 11H30.3552V-1H9V11ZM10 10C10 10.5523 9.55229 11 9 11V-1C2.92487 -1 -2 3.92487 -2 10H10ZM10 50V10H-2V50H10ZM9 49C9.55228 49 10 49.4477 10 50H-2C-2 56.0751 2.92487 61 9 61V49ZM80.25 49H9V61H80.25V49ZM79.25 50C79.25 49.4477 79.6977 49 80.25 49V61C86.3251 61 91.25 56.0751 91.25 50H79.25ZM79.25 35.2839V50H91.25V35.2839H79.25ZM81.8378 20.703L36.943 0.419147L32.0021 11.3548L76.8969 31.6387L81.8378 20.703ZM91.25 35.2839C91.25 28.9965 87.5675 23.2918 81.8378 20.703L76.8969 31.6387C78.3294 32.2859 79.25 33.712 79.25 35.2839H91.25ZM30.3552 11C30.9231 11 31.4846 11.1209 32.0021 11.3548L36.943 0.419147C34.8727 -0.516222 32.627 -1 30.3552 -1V11Z" fill="#2697EC" mask="url(#path-13-inside-1_72_70)"/>
<rect x="14" y="12.9736" width="1.47942" height="17.2203" rx="0.73971" transform="rotate(-41.1544 14 12.9736)" fill="#2697EC"/>
<rect x="22.1368" y="15.9324" width="1.47942" height="9.47347" rx="0.73971" transform="rotate(-41.1544 22.1368 15.9324)" fill="#2697EC"/>
<rect x="28.0545" y="16.6721" width="1.47942" height="4.30276" rx="0.73971" transform="rotate(-41.1544 28.0545 16.6721)" fill="#2697EC"/>
<rect x="18" y="37" width="9" height="3" rx="1.5" fill="#2697EC"/>
<rect x="7" y="28" width="74" height="5" fill="#2697EC"/>
</svg>
