<svg width="596" height="147" viewBox="0 0 596 147" fill="none" xmlns="http://www.w3.org/2000/svg">
<path d="M8.53551 27.6205L7.9521 31.4829L4.08966 30.8995L5.25649 23.1746L9.11892 23.758L9.70233 19.8956L13.5648 20.479L14.1482 16.6166L10.2857 16.0332L10.8692 12.1707L7.00672 11.5873L8.17354 3.86243L12.036 4.44584L11.4526 8.30828L15.315 8.89169L14.7316 12.7541L18.594 13.3375L20.3443 1.75023L28.0691 2.91705L26.3189 14.5044L30.1813 15.0878L30.7648 11.2253L34.6272 11.8087L35.2106 7.9463L39.073 8.52972L37.9062 16.2546L34.0438 15.6712L33.4604 19.5336L29.5979 18.9502L29.0145 22.8126L32.877 23.3961L32.2935 27.2585L36.156 27.8419L34.9892 35.5668L31.1267 34.9834L31.7101 31.1209L27.8477 30.5375L28.4311 26.6751L24.5687 26.0917L22.8184 37.679L15.0936 36.5122L16.8438 24.9248L12.9814 24.3414L12.3979 28.2039L8.53551 27.6205ZM48.6887 49.4877L44.8262 48.9043L50.6603 10.2799L58.3852 11.4468L53.1345 46.2087L56.997 46.7921L56.4136 50.6546L60.276 51.238L59.6926 55.1004L67.4175 56.2672L67.9892 52.482L71.8516 53.0654L72.4467 49.1258L76.3092 49.7092L81.5598 14.9472L89.2847 16.1141L83.4506 54.7384L79.5882 54.155L79.0048 58.0175L75.1423 57.434L74.5473 61.3737L70.6848 60.7903L70.1131 64.5755L66.2506 63.9921L65.6672 67.8545L57.9424 66.6877L58.5258 62.8253L54.6633 62.2419L55.2467 58.3794L51.3843 57.796L51.9677 53.9336L48.1053 53.3502L48.6887 49.4877ZM96.5667 72.5218L97.7335 64.7969L105.458 65.9638L111.293 27.3394L103.568 26.1726L104.734 18.4477L127.909 21.9482L126.742 29.673L119.017 28.5062L113.183 67.1306L120.908 68.2974L119.741 76.0223L96.5667 72.5218ZM147.583 48.6232L142.916 79.5227L135.191 78.3559L143.359 24.2818L151.084 25.4486L149.339 36.9973L153.202 37.5807L152.613 41.4818L156.475 42.0652L155.892 45.9276L159.754 46.511L159.171 50.3735L163.033 50.9569L162.45 54.8193L166.312 55.4027L165.729 59.2652L169.591 59.8486L174.258 28.9491L181.983 30.1159L173.815 84.19L166.091 83.0232L167.841 71.4359L163.978 70.8525L164.562 66.99L160.699 66.4066L161.283 62.5442L157.42 61.9608L158.004 58.0983L154.141 57.5149L154.725 53.6525L150.862 53.0691L151.446 49.2067L147.583 48.6232ZM190.432 78.7988L221.332 83.4661L220.165 91.1909L181.54 85.3568L185.041 62.1822L188.903 62.7656L189.487 58.9032L193.349 59.4866L193.933 55.6242L213.245 58.5412L213.828 54.6788L217.691 55.2622L218.857 47.5373L214.995 46.9539L215.578 43.0915L200.129 40.7578L199.545 44.6203L195.683 44.0369L195.099 47.8993L187.374 46.7325L188.541 39.0076L192.404 39.591L192.987 35.7286L196.85 36.312L197.433 32.4495L220.608 35.95L220.024 39.8124L223.887 40.3959L223.303 44.2583L227.166 44.8417L224.832 60.2915L220.97 59.708L220.386 63.5705L216.524 62.9871L215.94 66.8495L196.628 63.9325L196.045 67.7949L192.182 67.2115L190.432 78.7988ZM232.919 85.2163L229.056 84.6329L230.223 76.908L237.948 78.0748L237.365 81.9373L241.227 82.5207L240.644 86.3831L256.093 88.7168L256.677 84.8543L260.539 85.4377L262.29 73.8504L239.115 70.35L239.693 66.5262L235.83 65.9427L236.419 62.0417L232.557 61.4583L234.891 46.0085L238.753 46.5919L239.336 42.7295L243.199 43.3129L243.782 39.4505L266.957 42.9509L266.373 46.8134L270.236 47.3968L269.652 51.2592L273.515 51.8426L267.681 90.467L263.818 89.8836L263.235 93.746L259.373 93.1626L258.789 97.0251L235.614 93.5246L236.198 89.6622L232.335 89.0787L232.919 85.2163ZM263.456 66.1256L265.207 54.5382L261.344 53.9548L261.928 50.0924L246.478 47.7588L245.894 51.6212L242.032 51.0378L240.859 58.8013L244.722 59.3847L244.144 63.2085L263.456 66.1256ZM286.987 93.4227L302.437 95.7563L303.02 91.8939L306.883 92.4773L307.46 88.6535L315.185 89.8203L314.018 97.5452L310.156 96.9618L309.578 100.786L305.716 100.202L305.133 104.065L281.958 100.564L282.547 96.6631L278.685 96.0797L279.268 92.2172L275.406 91.6338L281.24 53.0094L285.102 53.5929L285.686 49.7304L289.548 50.3138L290.131 46.4514L313.306 49.9519L312.723 53.8143L316.585 54.3977L316.002 58.2601L319.864 58.8436L318.697 66.5684L310.972 65.4016L311.556 61.5392L307.693 60.9558L308.277 57.0933L292.827 54.7597L292.244 58.6221L288.381 58.0387L283.714 88.9382L287.576 89.5216L286.987 93.4227ZM354.626 64.0942L339.176 61.7606L338.593 65.623L334.73 65.0396L330.063 95.9391L333.926 96.5225L333.342 100.385L348.831 102.724L349.408 98.9006L353.232 99.4782L357.905 68.5401L354.043 67.9567L354.626 64.0942ZM335.897 57.3148L336.481 53.4523L359.655 56.9528L359.072 60.8152L362.934 61.3986L362.351 65.2611L366.213 65.8445L360.379 104.469L356.555 103.891L355.966 107.792L352.065 107.203L351.488 111.027L328.313 107.526L328.896 103.664L325.034 103.081L325.617 99.2182L321.755 98.6347L327.589 60.0104L331.451 60.5938L332.035 56.7313L335.897 57.3148ZM381.663 68.1781L375.829 106.802L391.279 109.136L391.273 109.175L395.135 109.758L395.725 105.857L399.587 106.441L404.254 75.541L400.392 74.9576L400.975 71.0952L381.663 68.1781ZM366.943 113.322L375.111 59.2478L405.972 63.9092L405.388 67.7717L409.289 68.3609L408.706 72.2234L412.568 72.8068L406.734 111.431L402.872 110.848L402.289 114.71L398.426 114.127L397.837 118.028L390.112 116.861L390.118 116.822L366.943 113.322ZM460.079 72.1215L458.912 79.8463L428.012 75.179L425.679 90.6288L448.853 94.1293L447.687 101.854L424.512 98.3537L422.178 113.803L453.078 118.471L451.911 126.196L413.287 120.361L421.454 66.2873L460.079 72.1215ZM467.804 73.2883L506.428 79.1224L505.261 86.8473L474.362 82.18L473.195 89.9048L496.369 93.4053L495.786 97.2677L499.648 97.8512L499.065 101.714L502.927 102.297L499.427 125.472L495.565 124.888L494.981 128.751L491.119 128.167L490.535 132.03L467.361 128.529L467.944 124.667L464.082 124.083L464.671 120.182L460.808 119.599L461.975 111.874L469.7 113.041L469.111 116.942L472.973 117.525L472.39 121.388L487.84 123.721L488.423 119.859L492.286 120.442L494.036 108.855L493.997 108.849L494.581 104.987L490.757 104.409L491.34 100.547L464.303 96.4629L467.804 73.2883ZM543.886 92.6814L512.986 88.0141L514.153 80.2892L552.777 86.1233L549.86 105.435L545.998 104.852L545.414 108.715L541.552 108.131L540.968 111.994L537.106 111.41L536.523 115.273L532.66 114.689L529.16 137.864L521.435 136.697L525.519 109.66L529.381 110.243L529.965 106.381L533.827 106.964L534.41 103.102L538.273 103.685L538.856 99.8228L542.719 100.406L543.886 92.6814ZM564.726 111.632L564.143 115.494L560.281 114.911L561.447 107.186L565.31 107.769L565.893 103.907L569.756 104.49L570.339 100.628L566.477 100.044L567.06 96.1818L563.198 95.5984L564.365 87.8735L568.227 88.4569L567.644 92.3194L571.506 92.9028L570.923 96.7652L574.785 97.3486L576.535 85.7613L584.26 86.9281L582.51 98.5155L586.372 99.0989L586.956 95.2364L590.818 95.8198L591.402 91.9574L595.264 92.5408L594.097 100.266L590.235 99.6823L589.651 103.545L585.789 102.961L585.205 106.824L589.068 107.407L588.485 111.27L592.347 111.853L591.18 119.578L587.318 118.994L587.901 115.132L584.039 114.549L584.622 110.686L580.76 110.103L579.009 121.69L571.285 120.523L573.035 108.936L569.172 108.353L568.589 112.215L564.726 111.632Z" fill="url(#paint0_linear_427_1520)"/>
<defs>
<linearGradient id="paint0_linear_427_1520" x1="-3.07514" y1="26.0247" x2="600.083" y2="117.13" gradientUnits="userSpaceOnUse">
<stop stop-color="#0060A8"/>
<stop offset="1" stop-color="#001E33"/>
</linearGradient>
</defs>
</svg>
